# xmcd CD database file
# Copyright (C) 1995-1998 Ti Kan
#
# Track frame offsets:
#	150
#	23832
#	41565
#	74777
#	92692
#	108662
#	125765
#	137882
#	159380
#	175009
#	186097
#
# Disc length: 2950 seconds
#
# Revision: 1
# Processed by: cddbd v1.4PL0 Copyright (c) Steve Scherf et al.
# Submitted via: CDex 1.30
#
DISCID=9c0b840b
DTITLE=Salty Dog - Steel to Steel
DYEAR=1999
DGENRE=Blues
TTITLE0=Walking Blues
TTITLE1=Annie Crab
TTITLE2=(Medley) Heaven Sittin Down - Pallet on your Floor
TTITLE3=Blues for Madison
TTITLE4=What Happened to my Shoes
TTITLE5=Mistreated Blues
TTITLE6=Robbed Again
TTITLE7=Lonesome Dog Blues
TTITLE8=Ragged and Dirty
TTITLE9=Don't you mind People rinning in your Face
TTITLE10=Medley
EXTD=YEAR: 1999  ID3G:   0
EXTT0=
EXTT1=
EXTT2=
EXTT3=
EXTT4=
EXTT5=
EXTT6=
EXTT7=
EXTT8=
EXTT9=
EXTT10=
PLAYORDER=
